# xmcd
#
# Track frame offsets:
# 200
# 19670
# 31107
# 46565
# 66177
# 86200
# 102485
# 118775
# 134095
# 150792
# 166110
# 184755
#
# Disc length: 2660 seconds
#
# Revision: 0
# Processed by: cddbd v1.5.1PL0 Copyright (c) Steve Scherf et al.
# Submitted via: Audion 3.0.2 (http://www.panic.com/audion/)
#
DISCID=910a620c
DTITLE=Alejandro Santiago - En pie de guerra
DYEAR=1900
DGENRE=
TTITLE0=que pase el huracan
TTITLE1=solo la verdad
TTITLE2=debiendole al cielo
TTITLE3=libertad condicional
TTITLE4=alguien metio las manos
TTITLE5=tu vida
TTITLE6=agua de mar
TTITLE7=cuando dije amor
TTITLE8=malos consejos
TTITLE9=incierto
TTITLE10=es un mundo
TTITLE11=es pie de guerra
EXTD=
EXTT0=
EXTT1=
EXTT2=
EXTT3=
EXTT4=
EXTT5=
EXTT6=
EXTT7=
EXTT8=
EXTT9=
EXTT10=
EXTT11=
PLAYORDER=
